<?xml version="1.0" standalone="no"?>
<!DOCTYPE svg PUBLIC "-//W3C//DTD SVG 20010904//EN"
 "http://www.w3.org/TR/2001/REC-SVG-20010904/DTD/svg10.dtd">
<svg version="1.0" xmlns="http://www.w3.org/2000/svg"
 width="512.000000pt" height="512.000000pt" viewBox="0 0 512.000000 512.000000"
 preserveAspectRatio="xMidYMid meet">
<metadata>
Created by potrace 1.14, written by Peter Selinger 2001-2017
</metadata>
<g transform="translate(0.000000,512.000000) scale(0.100000,-0.100000)"
fill="#000000" stroke="none">
<path d="M2545 4855 c-26 -60 -385 -985 -385 -990 0 -3 -9 -24 -19 -48 -11
-23 -65 -161 -121 -307 -57 -147 -112 -274 -124 -286 -22 -22 -43 -31 -426
-179 -124 -48 -299 -116 -390 -152 -91 -36 -239 -93 -330 -129 -91 -35 -246
-95 -345 -133 l-180 -70 35 -14 c19 -9 177 -70 350 -137 173 -67 324 -125 335
-130 11 -5 126 -50 255 -100 129 -50 244 -95 255 -100 11 -5 61 -25 110 -43
244 -92 311 -120 331 -140 12 -12 81 -178 158 -377 76 -195 142 -364 146 -375
5 -11 88 -222 184 -468 95 -247 176 -445 180 -439 3 5 31 74 61 153 30 79 59
153 64 164 5 11 24 58 41 105 18 47 38 99 45 115 7 17 38 98 70 180 31 83 63
164 70 180 7 17 74 190 150 385 82 213 146 363 159 376 12 12 152 72 312 134
159 62 350 136 424 165 208 82 623 243 745 290 61 23 128 50 150 59 l40 18
-65 24 c-36 13 -74 28 -85 33 -11 6 -96 39 -190 75 -93 36 -258 99 -365 141
-107 42 -242 94 -300 116 -58 22 -114 44 -125 49 -11 4 -40 16 -65 25 -25 9
-58 23 -75 30 -16 7 -97 39 -180 70 -185 71 -209 82 -228 103 -13 14 -181 441
-444 1122 -35 91 -67 174 -72 185 -5 11 -32 81 -61 155 -28 74 -57 151 -65
170 l-13 35 -17 -40z m127 -1896 c12 -7 25 -12 28 -11 23 7 127 -61 169 -111
124 -145 142 -343 44 -495 -161 -253 -509 -267 -688 -28 -60 80 -86 170 -80
277 12 189 150 340 350 382 37 8 153 -1 177 -14z"/>
</g>
</svg>
